<?xml version="1.0" encoding="UTF-8"?>
<svg viewBox="0 0 600 720" width="600" height="720" xmlns="http://www.w3.org/2000/svg" font-family="Nunito" font-weight="800">

<rect width="600" height="720" fill="#23275f"></rect>
<g fill="#ffffff">
<circle cx="60" cy="60" r="2"></circle><circle cx="250" cy="40" r="2.5"></circle><circle cx="540" cy="250" r="2"></circle>
<circle cx="40" cy="330" r="2"></circle><circle cx="360" cy="90" r="2"></circle><circle cx="560" cy="430" r="2.5"></circle>
<circle cx="200" cy="140" r="1.8"></circle><circle cx="80" cy="480" r="2"></circle>
</g>
<path transform="translate(320 160)" fill="#ffd166" d="M0 -10 l3 7 l7 3 l-7 3 l-3 7 l-3 -7 l-7 -3 l7 -3 z"></path>
<path transform="translate(70 170) scale(0.8)" fill="#ffffff" d="M0 -10 l3 7 l7 3 l-7 3 l-3 7 l-3 -7 l-7 -3 l7 -3 z"></path>
<path transform="translate(520 520) scale(0.9)" fill="#4ecdc4" d="M0 -10 l3 7 l7 3 l-7 3 l-3 7 l-3 -7 l-7 -3 l7 -3 z"></path>
<path d="M150 70 A42 42 0 1 0 150 150 A32 32 0 1 1 150 70 Z" fill="#ffe9a8"></path>
<g transform="translate(470 140) rotate(-18)">
<circle r="46" fill="#ff6b8b"></circle>
<path d="M-46 -6 Q0 -18 46 -6" stroke="#e04f70" stroke-width="8" fill="none"></path>
<ellipse rx="80" ry="16" fill="none" stroke="#ffd166" stroke-width="7"></ellipse>
<path d="M-46 0 A46 46 0 0 0 46 0" fill="#ff6b8b"></path>
</g>
<circle cx="100" cy="270" r="24" fill="#4ecdc4"></circle>
<circle cx="92" cy="262" r="6" fill="#3bb3aa"></circle>
<text x="410" y="300" font-size="44" fill="#ffd166">Σ</text>
<text x="140" y="390" font-size="38" fill="#4ecdc4">√2</text>
<text x="430" y="410" font-size="30" fill="#ff6b8b">1+1</text>
<g transform="translate(140 470) rotate(-40)">
<rect x="-14" y="-70" width="28" height="140" rx="3" fill="#ffd166"></rect>
<path d="M-14 -55 h10 M-14 -40 h6 M-14 -25 h10 M-14 -10 h6 M-14 5 h10 M-14 20 h6 M-14 35 h10 M-14 50 h6" stroke="#b9862a" stroke-width="2"></path>
</g>
<g transform="translate(480 470) rotate(35) scale(0.85)">
<rect x="-11" y="-50" width="22" height="80" fill="#4ecdc4"></rect>
<rect x="-4" y="-50" width="8" height="80" fill="#ffffff" opacity="0.2"></rect>
<rect x="-11" y="-62" width="22" height="12" fill="#e9e3dc"></rect>
<path d="M-11 -62 h22 v-6 a11 11 0 0 0 -22 0 z" fill="#f7a8c4"></path>
<path d="M-11 30 L11 30 L0 58 Z" fill="#f3d2a2"></path>
<path d="M-4 48 L4 48 L0 58 Z" fill="#2b2b3a"></path>
</g>
<g fill="#ffffff">
<circle cx="250" cy="520" r="34"></circle><circle cx="300" cy="505" r="42"></circle><circle cx="352" cy="522" r="32"></circle>
<circle cx="215" cy="548" r="24"></circle><circle cx="388" cy="548" r="22"></circle>
</g>
<g transform="translate(300 290)">
<path d="M-22 74 Q0 190 22 74 Z" fill="#ffd166"></path>
<path d="M-12 74 Q0 140 12 74 Z" fill="#ff9f43"></path>
<path d="M-38 20 L-72 78 L-38 62 Z" fill="#ff6b8b"></path>
<path d="M38 20 L72 78 L38 62 Z" fill="#ff6b8b"></path>
<path d="M-38 62 L-38 -40 Q0 -126 38 -40 L38 62 Z" fill="#f5f7fb"></path>
<path d="M12 62 L12 -80 Q30 -60 38 -40 L38 62 Z" fill="#dfe4ee"></path>
<rect x="-38" y="22" width="76" height="12" fill="#ff6b8b"></rect>
<circle cy="-20" r="17" fill="#4ecdc4" stroke="#2a2f6e" stroke-width="6"></circle>
<path d="M-8 -26 A9 9 0 0 1 0 -32" stroke="#ffffff" stroke-width="4" fill="none" stroke-linecap="round"></path>
<rect x="-24" y="62" width="48" height="14" rx="3" fill="#9aa4b8"></rect>
</g>
<rect y="640" width="600" height="80" fill="#ff9f43"></rect>
<ellipse cx="300" cy="640" rx="190" ry="14" fill="#d9792a"></ellipse>
<path d="M300 592 Q210 560 120 580 L120 640 Q210 622 300 650 Z" fill="#4ecdc4"></path>
<path d="M300 592 Q390 560 480 580 L480 640 Q390 622 300 650 Z" fill="#3bb3aa"></path>
<path d="M300 578 Q215 546 132 566 L132 626 Q215 608 300 636 Z" fill="#ffffff"></path>
<path d="M300 578 Q385 546 468 566 L468 626 Q385 608 300 636 Z" fill="#eef1f6"></path>
<path d="M160 584 Q220 570 280 590 M160 600 Q220 586 280 606 M320 590 Q380 570 440 584 M320 606 Q380 586 440 600" stroke="#c9d0dc" stroke-width="2.5" fill="none"></path>
</svg>
